<?xml version="1.0" standalone="no"?>
<!DOCTYPE svg PUBLIC "-//W3C//DTD SVG 20010904//EN"
 "http://www.w3.org/TR/2001/REC-SVG-20010904/DTD/svg10.dtd">
<svg version="1.0" xmlns="http://www.w3.org/2000/svg"
 width="240.000000pt" height="240.000000pt" viewBox="0 0 240.000000 240.000000"
 preserveAspectRatio="xMidYMid meet">
<metadata>
Created by potrace 1.14, written by Peter Selinger 2001-2017
</metadata>
<g transform="translate(0.000000,240.000000) scale(0.100000,-0.100000)"
fill="#000000" stroke="none">
<path d="M1648 1883 c-44 -28 -60 -82 -37 -126 7 -12 64 -74 128 -137 l115
-115 -594 -5 c-640 -5 -625 -4 -649 -57 -6 -13 -11 -33 -11 -44 0 -30 30 -76
57 -88 17 -8 248 -11 744 -11 655 0 724 2 749 17 50 29 64 87 32 134 -24 37
-412 423 -439 437 -30 16 -63 14 -95 -5z"/>
<path d="M248 1083 c-44 -28 -60 -82 -37 -126 22 -41 435 -446 463 -453 73
-18 140 49 121 123 -3 15 -57 77 -126 146 -65 65 -119 121 -119 123 0 2 263 4
585 4 431 0 591 3 610 12 29 13 55 55 55 88 0 33 -26 75 -55 88 -19 9 -209 12
-748 12 -655 -1 -724 -2 -749 -17z"/>
</g>
</svg>
